<svg width="271" height="280" viewBox="0 0 271 280" fill="none" xmlns="http://www.w3.org/2000/svg">
<g clip-path="url(#clip0_5_268)">
<path d="M61.3042 97.9007L51.069 104.614L157.663 267.137L167.899 260.424L61.3042 97.9007Z" fill="#E6E6E6"/>
<path d="M36.937 36.7389L60.618 72.845C61.0766 73.5442 61.2386 74.3969 61.0685 75.2156C60.8983 76.0343 60.41 76.7519 59.7107 77.2105C59.0115 77.669 58.1588 77.8311 57.3401 77.6609C56.5214 77.4908 55.8039 77.0024 55.3453 76.3032L28.1211 34.7949C24.4259 34.4863 20.7116 35.0963 17.3091 36.5706L46.971 81.7957C47.4293 82.4949 47.5911 83.3475 47.4209 84.1659C47.2507 84.9844 46.7623 85.7018 46.0632 86.1603C45.3642 86.6188 44.5116 86.7809 43.6931 86.6109C42.8745 86.4409 42.157 85.9528 41.6983 85.2539L12.0364 40.0288C9.32856 42.5621 7.28919 45.7258 6.0999 49.238L33.3241 90.7463C33.7823 91.4455 33.9441 92.2981 33.7739 93.1166C33.6037 93.9351 33.1153 94.6525 32.4163 95.111C31.7172 95.5695 30.8647 95.7316 30.0461 95.5616C29.2276 95.3916 28.5101 94.9035 28.0514 94.2046L4.37038 58.0985C3.76215 68.1657 7.04448 80.0981 14.238 91.066C27.6074 111.45 49.4156 120.78 62.948 111.904C76.4804 103.029 76.6124 79.3091 63.243 58.9249C56.0495 47.957 46.413 40.1922 36.937 36.7389Z" fill="#E6E6E6"/>
<path d="M107.195 75.6671H94.9548V270.028H107.195V75.6671Z" fill="#E6E6E6"/>
<path d="M100.889 88.2783C117.073 88.2783 130.192 68.5165 130.192 44.1392C130.192 19.7618 117.073 0 100.889 0C84.7062 0 71.587 19.7618 71.587 44.1392C71.587 68.5165 84.7062 88.2783 100.889 88.2783Z" fill="#E6E6E6"/>
<path d="M100.889 80.4562C114.205 80.4562 124.999 64.1965 124.999 44.1391C124.999 24.0818 114.205 7.82211 100.889 7.82211C87.574 7.82211 76.7798 24.0818 76.7798 44.1391C76.7798 64.1965 87.574 80.4562 100.889 80.4562Z" fill="#CCCCCC"/>
<path d="M135.014 280C209.58 280 270.028 276.532 270.028 272.253C270.028 267.975 209.58 264.507 135.014 264.507C60.4478 264.507 0 267.975 0 272.253C0 276.532 60.4478 280 135.014 280Z" fill="#E6E6E6"/>
<path d="M214.86 272.139C164.263 263.019 112.442 263.019 61.8438 272.139C61.04 272.285 60.2141 272.253 59.4243 272.044C58.6345 271.836 57.9001 271.457 57.2729 270.933C56.6456 270.41 56.1409 269.756 55.7942 269.016C55.4476 268.276 55.2675 267.47 55.2666 266.653V197.328H221.438V266.653C221.437 267.47 221.257 268.276 220.91 269.016C220.563 269.756 220.058 270.41 219.431 270.933C218.804 271.457 218.07 271.836 217.28 272.044C216.49 272.253 215.664 272.285 214.86 272.139Z" fill="#25C573"/>
<path d="M206.23 146.141C202.393 146.138 198.583 146.776 194.956 148.028C189.666 136.555 181.213 126.828 170.59 119.99C159.966 113.151 147.612 109.485 134.978 109.421C122.344 109.358 109.954 112.899 99.2621 119.629C88.57 126.36 80.0194 136.001 74.6139 147.42C69.2912 145.927 63.6876 145.735 58.2752 146.86C52.8627 147.985 47.7999 150.394 43.5133 153.885C39.2266 157.376 35.8417 161.846 33.6435 166.918C31.4454 171.99 30.4985 177.517 30.8826 183.032C31.2666 188.546 32.9704 193.888 35.8504 198.607C38.7304 203.325 42.7022 207.283 47.4314 210.146C52.1605 213.009 57.5084 214.693 63.0245 215.057C68.5407 215.421 74.0636 214.454 79.1279 212.238C85.2148 221.513 93.5287 229.116 103.31 234.351C113.092 239.586 124.029 242.287 135.123 242.207C146.217 242.127 157.114 239.269 166.819 233.894C176.524 228.518 184.728 220.797 190.681 211.435C195.331 213.783 200.453 215.047 205.662 215.132C210.872 215.218 216.032 214.122 220.757 211.928C225.482 209.734 229.649 206.498 232.945 202.463C236.241 198.428 238.58 193.699 239.787 188.631C240.994 183.563 241.037 178.288 239.914 173.2C238.79 168.113 236.529 163.346 233.3 159.258C230.071 155.17 225.958 151.865 221.27 149.594C216.582 147.322 211.44 146.142 206.23 146.141Z" fill="#25C573"/>
<path d="M68.6196 175.815H67.8778C67.8525 165.938 70.0383 156.181 74.275 147.26L74.9455 147.577C70.7559 156.4 68.5944 166.048 68.6196 175.815Z" fill="#3F3D56"/>
<path d="M201.408 175.815H200.666C200.689 166.273 198.627 156.842 194.623 148.181L195.296 147.87C199.345 156.629 201.431 166.166 201.408 175.815Z" fill="#3F3D56"/>
<path d="M55.3561 229.587L55.1771 228.867C55.3865 228.815 76.469 223.637 107.365 221.068C135.882 218.697 178.836 218.125 221.528 228.867L221.347 229.587C178.76 218.871 135.899 219.44 107.442 221.806C76.6014 224.369 55.5649 229.535 55.3561 229.587Z" fill="#3F3D56"/>
<path d="M55.3561 239.602L55.1771 238.882C55.3865 238.83 76.469 233.652 107.365 231.083C135.882 228.711 178.836 228.139 221.528 238.882L221.347 239.601C178.76 228.886 135.899 229.456 107.442 231.821C76.6014 234.384 55.5649 239.55 55.3561 239.602Z" fill="#3F3D56"/>
<path d="M55.3561 249.616L55.1771 248.896C55.3865 248.845 76.469 243.667 107.365 241.097C135.882 238.726 178.836 238.154 221.528 248.897L221.347 249.616C178.76 238.9 135.899 239.471 107.442 241.836C76.6014 244.399 55.5649 249.565 55.3561 249.616Z" fill="#3F3D56"/>
<path d="M191.863 195.16L182.876 192.105L191.504 148.066L185.572 147.527C179.788 151.965 172.086 153.704 162.205 152.38L178.023 176.287L169.957 181.98L144.227 151.118C143.067 149.727 142.432 147.973 142.432 146.162C142.432 144.483 142.978 142.849 143.988 141.508C144.998 140.166 146.416 139.189 148.03 138.725L175.506 130.81L207.681 134.405C212.546 141.821 212.736 146.979 205.331 148.467L191.863 195.16Z" fill="#2F2E41"/>
<path d="M182.664 212.292C181.735 212.233 180.833 211.956 180.031 211.483C179.23 211.011 178.551 210.355 178.049 209.571C177.548 208.786 177.239 207.894 177.148 206.968C177.056 206.042 177.184 205.107 177.521 204.239L181.989 192.75C184.259 188.45 187.374 188.989 191.052 192.75L192.849 198.023C192.997 198.457 193.056 198.916 193.022 199.374C192.988 199.831 192.862 200.277 192.651 200.684L188.296 209.104C187.768 210.125 186.954 210.97 185.954 211.536C184.954 212.102 183.811 212.365 182.664 212.292Z" fill="#2F2E41"/>
<path d="M171.049 197.247C170.12 197.188 169.218 196.911 168.416 196.438C167.615 195.965 166.936 195.31 166.434 194.525C165.933 193.741 165.624 192.849 165.533 191.923C165.441 190.996 165.569 190.061 165.906 189.194L170.374 177.704C172.644 173.405 175.759 173.943 179.437 177.704L181.234 182.977C181.382 183.411 181.441 183.871 181.407 184.328C181.373 184.786 181.247 185.231 181.036 185.639L176.681 194.059C176.153 195.079 175.339 195.924 174.339 196.49C173.339 197.057 172.196 197.319 171.049 197.247Z" fill="#2F2E41"/>
<path d="M176.764 88.7489C182.324 88.7489 186.83 84.2422 186.83 78.6829C186.83 73.1237 182.324 68.617 176.764 68.617C171.205 68.617 166.698 73.1237 166.698 78.6829C166.698 84.2422 171.205 88.7489 176.764 88.7489Z" fill="#FFB9B9"/>
<path d="M192.403 92.8832L178.562 100.073L175.686 87.1311L185.212 81.1993L192.403 92.8832Z" fill="#FFB9B9"/>
<path d="M209.119 136.203C195.309 132.031 182.777 129.87 173.709 133.147C176.835 124.353 171.065 110.925 164.721 97.1971C167.458 93.6189 171.823 92.2329 176.764 91.6248C182.171 95.5508 185.941 93.031 188.808 86.9514C195.059 86.7004 201.083 88.9142 206.962 92.7033C202.366 107.424 203.194 121.919 209.119 136.203Z" fill="#3F3D56"/>
<path d="M173.529 135.304C171.348 136.589 169.335 138.755 167.417 141.415C164.176 139.431 161.324 137.172 159.077 134.486C157.504 132.581 156.432 130.313 155.957 127.889C155.482 125.465 155.62 122.96 156.358 120.602L162.501 100.639C163.011 98.981 164.002 97.5118 165.348 96.4178L166.159 95.7591L174.248 111.038L166.159 126.137C167.185 128.887 170.208 132.064 173.529 135.304Z" fill="#3F3D56"/>
<path d="M176.313 150.525C175.58 150.859 174.779 151.018 173.973 150.989C173.168 150.961 172.38 150.745 171.672 150.359C170.965 149.974 170.357 149.428 169.896 148.767C169.435 148.106 169.135 147.346 169.018 146.549L167.681 137.397L172.355 134.88L178.286 142.645C178.76 143.265 179.088 143.984 179.246 144.748C179.403 145.513 179.387 146.303 179.197 147.06C179.008 147.817 178.65 148.522 178.151 149.122C177.651 149.721 177.023 150.201 176.313 150.525Z" fill="#FFB9B9"/>
<path d="M186.92 78.2425L185.201 78.2935L180.434 71.5401C174.325 72.1716 169.319 74.8257 165.084 78.8911L164.654 76.0277C164.244 73.2971 164.897 70.5134 166.477 68.2491C168.057 65.9849 170.445 64.4122 173.149 63.8546H173.149C174.57 63.5617 176.034 63.5581 177.456 63.8439C178.878 64.1298 180.228 64.6992 181.425 65.5182C182.622 66.3373 183.641 67.3891 184.423 68.6109C185.204 69.8327 185.731 71.1994 185.973 72.6295L186.92 78.2425Z" fill="#2F2E41"/>
<path d="M167.591 141.419C167.256 140.686 167.097 139.885 167.126 139.079C167.155 138.274 167.371 137.486 167.756 136.778C168.142 136.071 168.687 135.462 169.348 135.002C170.01 134.541 170.769 134.241 171.567 134.124L180.719 132.787L183.235 137.461L175.471 143.392C174.85 143.866 174.131 144.194 173.367 144.352C172.603 144.509 171.813 144.493 171.056 144.303C170.298 144.114 169.594 143.756 168.994 143.257C168.394 142.757 167.915 142.129 167.591 141.419Z" fill="#FFB9B9"/>
<path d="M210.863 133.094C202.156 133.77 192.649 136.485 182.696 140.337C182.573 137.382 181.501 134.546 179.64 132.248C188.68 129.867 196.882 127.073 201.929 122.721L198.874 99.7136L205.524 92.1641L206.671 92.7626C207.624 93.2577 208.462 93.9475 209.131 94.7874C209.8 95.6272 210.285 96.5983 210.555 97.6377C213.363 108.561 214.61 119.027 213.753 128.876C213.863 129.809 213.631 130.752 213.1 131.527C212.569 132.303 211.774 132.86 210.863 133.094Z" fill="#3F3D56"/>
<path d="M35.5657 270.069C27.4677 275.134 19.3697 275.132 11.2717 270.063C11.0153 269.905 10.8071 269.68 10.6697 269.412C10.5323 269.144 10.471 268.844 10.4923 268.543L13.0191 235.695H33.4569L36.3437 268.532C36.3686 268.835 36.3091 269.139 36.1718 269.41C36.0345 269.682 35.8247 269.91 35.5657 270.069Z" fill="#3F3D56"/>
<path d="M23.1438 239.782C28.8396 239.782 33.4569 238.118 33.4569 236.066C33.4569 234.014 28.8396 232.35 23.1438 232.35C17.448 232.35 12.8307 234.014 12.8307 236.066C12.8307 238.118 17.448 239.782 23.1438 239.782Z" fill="#3F3D56"/>
<path d="M31.2272 234.812C25.8533 238.592 20.6509 238.592 15.6202 234.812V228.866H31.2272V234.812Z" fill="#25C573"/>
<path d="M23.4237 231.839C27.7335 231.839 31.2272 230.508 31.2272 228.866C31.2272 227.224 27.7335 225.893 23.4237 225.893C19.114 225.893 15.6202 227.224 15.6202 228.866C15.6202 230.508 19.114 231.839 23.4237 231.839Z" fill="#25C573"/>
<path d="M23.7953 228.866C24.2058 228.866 24.5385 228.7 24.5385 228.495C24.5385 228.289 24.2058 228.123 23.7953 228.123C23.3849 228.123 23.0521 228.289 23.0521 228.495C23.0521 228.7 23.3849 228.866 23.7953 228.866Z" fill="#E6E6E6"/>
<path d="M27.3046 228.866C27.715 228.866 28.0478 228.7 28.0478 228.495C28.0478 228.289 27.715 228.123 27.3046 228.123C26.8941 228.123 26.5614 228.289 26.5614 228.495C26.5614 228.7 26.8941 228.866 27.3046 228.866Z" fill="#E6E6E6"/>
<path d="M25.5501 229.744C25.9605 229.744 26.2933 229.577 26.2933 229.372C26.2933 229.167 25.9605 229 25.5501 229C25.1396 229 24.8069 229.167 24.8069 229.372C24.8069 229.577 25.1396 229.744 25.5501 229.744Z" fill="#E6E6E6"/>
<path d="M18.5315 229.744C18.942 229.744 19.2747 229.577 19.2747 229.372C19.2747 229.167 18.942 229 18.5315 229C18.1211 229 17.7883 229.167 17.7883 229.372C17.7883 229.577 18.1211 229.744 18.5315 229.744Z" fill="#E6E6E6"/>
<path d="M20.2862 228.866C20.6966 228.866 21.0293 228.7 21.0293 228.495C21.0293 228.289 20.6966 228.123 20.2862 228.123C19.8757 228.123 19.543 228.289 19.543 228.495C19.543 228.7 19.8757 228.866 20.2862 228.866Z" fill="#E6E6E6"/>
<path d="M22.0408 230.182C22.4512 230.182 22.784 230.016 22.784 229.811C22.784 229.605 22.4512 229.439 22.0408 229.439C21.6303 229.439 21.2976 229.605 21.2976 229.811C21.2976 230.016 21.6303 230.182 22.0408 230.182Z" fill="#E6E6E6"/>
<path d="M259.971 270.069C251.873 275.134 243.775 275.132 235.677 270.063C235.42 269.905 235.212 269.68 235.075 269.412C234.937 269.144 234.876 268.844 234.897 268.543L237.424 235.695H257.862L260.749 268.532C260.773 268.835 260.714 269.139 260.577 269.41C260.439 269.682 260.23 269.91 259.971 270.069Z" fill="#3F3D56"/>
<path d="M247.549 239.782C253.245 239.782 257.862 238.118 257.862 236.066C257.862 234.014 253.245 232.35 247.549 232.35C241.853 232.35 237.236 234.014 237.236 236.066C237.236 238.118 241.853 239.782 247.549 239.782Z" fill="#3F3D56"/>
<path d="M255.632 234.812C250.258 238.592 245.056 238.592 240.025 234.812V228.866H255.632V234.812Z" fill="#25C573"/>
<path d="M247.829 231.839C252.139 231.839 255.632 230.508 255.632 228.866C255.632 227.224 252.139 225.893 247.829 225.893C243.519 225.893 240.025 227.224 240.025 228.866C240.025 230.508 243.519 231.839 247.829 231.839Z" fill="#25C573"/>
<path d="M248.2 228.866C248.611 228.866 248.944 228.7 248.944 228.495C248.944 228.289 248.611 228.123 248.2 228.123C247.79 228.123 247.457 228.289 247.457 228.495C247.457 228.7 247.79 228.866 248.2 228.866Z" fill="#E6E6E6"/>
<path d="M251.71 228.866C252.12 228.866 252.453 228.7 252.453 228.495C252.453 228.289 252.12 228.123 251.71 228.123C251.299 228.123 250.966 228.289 250.966 228.495C250.966 228.7 251.299 228.866 251.71 228.866Z" fill="#E6E6E6"/>
<path d="M249.955 229.744C250.366 229.744 250.698 229.577 250.698 229.372C250.698 229.167 250.366 229 249.955 229C249.545 229 249.212 229.167 249.212 229.372C249.212 229.577 249.545 229.744 249.955 229.744Z" fill="#E6E6E6"/>
<path d="M242.936 229.744C243.347 229.744 243.68 229.577 243.68 229.372C243.68 229.167 243.347 229 242.936 229C242.526 229 242.193 229.167 242.193 229.372C242.193 229.577 242.526 229.744 242.936 229.744Z" fill="#E6E6E6"/>
<path d="M244.691 228.866C245.101 228.866 245.434 228.7 245.434 228.495C245.434 228.289 245.101 228.123 244.691 228.123C244.28 228.123 243.948 228.289 243.948 228.495C243.948 228.7 244.28 228.866 244.691 228.866Z" fill="#E6E6E6"/>
<path d="M246.446 230.182C246.856 230.182 247.189 230.016 247.189 229.811C247.189 229.605 246.856 229.439 246.446 229.439C246.035 229.439 245.703 229.605 245.703 229.811C245.703 230.016 246.035 230.182 246.446 230.182Z" fill="#E6E6E6"/>
</g>
<defs>
<clipPath id="clip0_5_268">
<rect width="270.028" height="280" fill="white"/>
</clipPath>
</defs>
</svg>
