<svg width="252" height="210" viewBox="0 0 252 210" fill="none" xmlns="http://www.w3.org/2000/svg">
<g clip-path="url(#clip0_4_25)">
<path d="M11.7096 200.108C15.2051 206.579 22.6238 209.357 22.6238 209.357C22.6238 209.357 24.3751 201.643 20.8796 195.172C17.3841 188.701 9.96545 185.923 9.96545 185.923C9.96545 185.923 8.21408 193.637 11.7096 200.108Z" fill="#2F2E41"/>
<path d="M14.1121 197.979C20.423 201.769 22.8534 209.297 22.8534 209.297C22.8534 209.297 15.0521 210.681 8.74129 206.89C2.43049 203.1 0 195.572 0 195.572C0 195.572 7.80134 194.189 14.1121 197.979Z" fill="#25C573"/>
<path d="M155.601 10.0815H116.226V10.644H155.601V10.0815Z" fill="#F2F2F2"/>
<path d="M144.914 10.5026H144.351V15.6966H144.914V10.5026Z" fill="#F2F2F2"/>
<path d="M127.757 10.5026H127.195V15.6966H127.757V10.5026Z" fill="#F2F2F2"/>
<path d="M175.57 37.0344H136.195V37.5969H175.57V37.0344Z" fill="#F2F2F2"/>
<path d="M147.445 31.9807H146.882V37.1747H147.445V31.9807Z" fill="#F2F2F2"/>
<path d="M164.601 31.9807H164.039V37.1747H164.601V31.9807Z" fill="#F2F2F2"/>
<path d="M227.882 49.6685H188.507V50.231H227.882V49.6685Z" fill="#F2F2F2"/>
<path d="M199.757 44.6149H199.195V49.8089H199.757V44.6149Z" fill="#F2F2F2"/>
<path d="M216.914 44.6149H216.351V49.8089H216.914V44.6149Z" fill="#F2F2F2"/>
<path d="M223.945 179.941H184.57V180.503H223.945V179.941Z" fill="#F2F2F2"/>
<path d="M195.82 174.887H195.257V180.081H195.82V174.887Z" fill="#F2F2F2"/>
<path d="M212.976 174.887H212.414V180.081H212.976V174.887Z" fill="#F2F2F2"/>
<path d="M156.726 89.8171H117.351V90.3796H156.726V89.8171Z" fill="#F2F2F2"/>
<path d="M128.601 84.7634H128.039V89.9575H128.601V84.7634Z" fill="#F2F2F2"/>
<path d="M145.757 84.7634H145.195V89.9575H145.757V84.7634Z" fill="#F2F2F2"/>
<path d="M169.101 157.48H129.726V158.043H169.101V157.48Z" fill="#F2F2F2"/>
<path d="M140.976 152.426H140.414V157.62H140.976V152.426Z" fill="#F2F2F2"/>
<path d="M158.132 152.426H157.57V157.62H158.132V152.426Z" fill="#F2F2F2"/>
<path d="M232.101 136.985H192.726V137.547H232.101V136.985Z" fill="#F2F2F2"/>
<path d="M203.976 131.931H203.414V137.125H203.976V131.931Z" fill="#F2F2F2"/>
<path d="M221.132 131.931H220.57V137.125H221.132V131.931Z" fill="#F2F2F2"/>
<path d="M101.829 197.145H35.2333V196.667H101.35V173.47H40.8319L37.892 167.356L38.324 167.149L41.1334 172.992H101.829V197.145Z" fill="#2F2E41"/>
<path d="M44.0968 208.862C46.8751 208.862 49.1274 206.614 49.1274 203.841C49.1274 201.067 46.8751 198.819 44.0968 198.819C41.3184 198.819 39.0661 201.067 39.0661 203.841C39.0661 206.614 41.3184 208.862 44.0968 208.862Z" fill="#3F3D56"/>
<path d="M93.6845 208.862C96.4629 208.862 98.7152 206.614 98.7152 203.841C98.7152 201.067 96.4629 198.819 93.6845 198.819C90.9062 198.819 88.6539 201.067 88.6539 203.841C88.6539 206.614 90.9062 208.862 93.6845 208.862Z" fill="#3F3D56"/>
<path d="M152.136 100.294C153.856 100.294 155.25 98.9026 155.25 97.1857C155.25 95.4688 153.856 94.0769 152.136 94.0769C150.416 94.0769 149.022 95.4688 149.022 97.1857C149.022 98.9026 150.416 100.294 152.136 100.294Z" fill="#3F3D56"/>
<path d="M108.952 165.579H34.0978L17.9011 112.73H125.632L125.534 113.041L108.952 165.579ZM34.4522 165.1H108.601L124.979 113.208H18.5486L34.4522 165.1Z" fill="#2F2E41"/>
<path d="M103.109 162.829H37.3618L23.1356 115.958H117.76L117.674 116.234L103.109 162.829Z" fill="#F2F2F2"/>
<path d="M126.975 108.008L126.511 107.885L129.673 95.99H148.063V96.4684H130.042L126.975 108.008Z" fill="#2F2E41"/>
<path d="M120.249 128.752H23.1352V129.231H120.249V128.752Z" fill="#2F2E41"/>
<path d="M114.687 146.372H28.5353V146.851H114.687V146.372Z" fill="#2F2E41"/>
<path d="M72.0049 112.969H71.5258V165.34H72.0049V112.969Z" fill="#2F2E41"/>
<path d="M93.4554 112.954L90.0162 165.323L90.4943 165.355L93.9336 112.985L93.4554 112.954Z" fill="#2F2E41"/>
<path d="M50.0852 112.953L49.607 112.984L53.0263 165.355L53.5044 165.324L50.0852 112.953Z" fill="#2F2E41"/>
<path d="M252 209.166H0V209.728H252V209.166Z" fill="#2F2E41"/>
<path d="M167.459 17.3722C167.459 17.3722 171.571 29.0536 169.041 30.8507C166.51 32.6479 177.58 47.3244 177.58 47.3244L190.863 43.7302L183.589 31.4498C183.589 31.4498 182.64 19.1694 182.64 17.3722C182.64 15.5751 167.459 17.3722 167.459 17.3722Z" fill="#A0616A"/>
<path opacity="0.1" d="M167.459 17.3722C167.459 17.3722 171.571 29.0536 169.041 30.8507C166.51 32.6479 177.58 47.3244 177.58 47.3244L190.863 43.7302L183.589 31.4498C183.589 31.4498 182.64 19.1694 182.64 17.3722C182.64 15.5751 167.459 17.3722 167.459 17.3722Z" fill="black"/>
<path d="M160.558 100.639C160.558 100.639 159.358 115.615 160.558 123.403C161.758 131.191 163.559 152.756 163.559 152.756C163.559 152.756 163.559 193.491 170.16 194.09C176.761 194.689 181.561 195.288 182.162 192.892C182.762 190.496 179.161 189.298 180.961 188.1C182.762 186.902 183.362 182.708 180.961 177.916C178.561 173.124 180.961 124.601 180.961 124.601L192.363 155.152C192.363 155.152 193.563 180.312 194.763 183.906C195.964 187.501 193.563 194.09 197.764 194.689C201.965 195.288 206.765 191.694 209.166 190.496C211.566 189.298 205.565 189.298 206.765 188.699C207.965 188.1 211.566 186.303 210.366 185.704C209.166 185.104 207.965 156.35 207.965 156.35C207.965 156.35 204.665 94.9484 200.464 92.5523C196.264 90.1561 193.563 94.2834 193.563 94.2834L160.558 100.639Z" fill="#2F2E41"/>
<path d="M171.36 191.694V196.486C171.36 196.486 165.959 209.513 171.36 209.513C176.761 209.513 180.961 210.863 180.961 209.066V192.892L171.36 191.694Z" fill="#2F2E41"/>
<path d="M206.765 191.685V196.478C206.765 196.478 212.166 209.505 206.765 209.505C201.364 209.505 197.164 210.855 197.164 209.058V192.884L206.765 191.685Z" fill="#2F2E41"/>
<path d="M175.861 26.0584C181.826 26.0584 186.662 21.2308 186.662 15.2756C186.662 9.32045 181.826 4.49283 175.861 4.49283C169.895 4.49283 165.059 9.32045 165.059 15.2756C165.059 21.2308 169.895 26.0584 175.861 26.0584Z" fill="#A0616A"/>
<path d="M172.56 35.3436C172.56 35.3436 175.56 44.3292 180.361 42.5321L185.162 40.735L193.563 98.2432C193.563 98.2432 186.962 107.828 177.361 101.837C167.759 95.847 172.56 35.3436 172.56 35.3436Z" fill="#25C573"/>
<path d="M180.961 33.5465L183.662 27.8555C183.662 27.8555 199.564 35.3436 201.964 37.7398C204.365 40.1359 204.365 43.7302 204.365 43.7302L200.164 58.7063C200.164 58.7063 201.364 91.6537 201.364 92.8518C201.364 94.0499 205.565 100.639 202.565 98.2432C199.564 95.847 198.964 93.4508 196.564 97.0451C194.163 100.639 188.762 104.833 188.762 104.833L180.961 33.5465Z" fill="#3F3D56"/>
<path d="M201.964 76.6776L200.164 93.4508C200.164 93.4508 189.363 103.036 191.763 103.635C194.163 104.234 195.363 101.837 195.363 101.837C195.363 101.837 199.564 106.031 201.964 103.635C204.365 101.238 210.366 78.4747 210.366 78.4747L201.964 76.6776Z" fill="#A0616A"/>
<path d="M176.091 0.0364625C173.696 -0.0489922 171.133 -0.0912636 169.115 1.1969C168.186 1.84337 167.371 2.63957 166.704 3.5529C164.737 6.03438 163.038 9.15665 163.769 12.2355L164.617 11.9052C164.617 12.727 164.434 13.5386 164.081 14.2812C164.201 13.9344 164.601 14.495 164.493 14.8457L163.559 17.9062C165.095 17.344 167.006 18.4823 167.24 20.0988C167.347 16.5441 167.716 12.4679 170.605 10.3864C172.062 9.33677 173.905 9.01633 175.679 8.73178C177.316 8.46927 179.031 8.21895 180.598 8.75673C182.166 9.29451 183.501 10.8947 183.145 12.5107C183.868 12.2622 184.676 12.765 185.033 13.4397C185.391 14.1143 185.409 14.9101 185.42 15.6731C186.19 16.2166 187.067 15.1374 187.381 14.2493C188.118 12.1649 188.773 9.94604 188.376 7.77139C187.979 5.59673 186.204 3.51852 183.99 3.51115C184.258 3.21644 184.402 2.82893 184.389 2.43058L182.564 2.27663C183.028 2.21114 183.454 1.98688 183.77 1.64225C183.037 2.44716 177.276 0.0787477 176.091 0.0364625Z" fill="#2F2E41"/>
<path d="M175.56 31.7493C175.56 31.7493 170.675 26.9706 168.917 27.2633C167.159 27.556 164.759 31.7493 164.759 31.7493C164.759 31.7493 150.357 36.5417 150.957 41.334C151.557 46.1264 158.158 69.4891 158.158 69.4891C158.158 69.4891 163.559 97.6441 158.758 100.639C153.957 103.635 181.561 111.422 182.161 107.828C182.762 104.234 183.962 68.291 182.161 62.8996C180.361 57.5082 175.56 31.7493 175.56 31.7493Z" fill="#3F3D56"/>
<path d="M196.564 41.334H203.984C203.984 41.334 209.166 64.0977 209.766 66.4939C210.366 68.89 211.566 80.2719 210.966 80.2719C210.366 80.2719 198.364 77.8757 198.364 79.6728L196.564 41.334Z" fill="#3F3D56"/>
<path d="M196.313 97.7043H167.906C165.134 84.9746 164.903 72.6756 167.906 60.9248H196.313C191.728 72.4642 191.442 84.679 196.313 97.7043Z" fill="#F2F2F2"/>
<path d="M156.358 82.069L164.759 85.6633C164.759 85.6633 180.961 88.0594 180.961 81.4699C180.961 74.8805 164.759 78.4747 164.759 78.4747L159.358 76.7508L156.358 82.069Z" fill="#A0616A"/>
<path d="M158.158 37.7398L150.957 39.5369L145.556 71.2862C145.556 71.2862 143.756 79.6728 146.756 80.2719C149.757 80.8709 158.158 85.6633 158.158 85.6633C158.158 85.6633 159.358 76.6776 161.758 76.6776L155.757 71.8852L159.358 50.9187L158.158 37.7398Z" fill="#3F3D56"/>
<path d="M56.3199 99.0822H16.9449V99.6447H56.3199V99.0822Z" fill="#F2F2F2"/>
<path d="M28.1949 94.0285H27.6324V99.2226H28.1949V94.0285Z" fill="#F2F2F2"/>
<path d="M45.3511 94.0285H44.7886V99.2226H45.3511V94.0285Z" fill="#F2F2F2"/>
<path d="M70.1011 15.9774H30.7261V16.5399H70.1011V15.9774Z" fill="#F2F2F2"/>
<path d="M59.4136 16.3985H58.8511V21.5926H59.4136V16.3985Z" fill="#F2F2F2"/>
<path d="M42.2574 16.3985H41.6949V21.5926H42.2574V16.3985Z" fill="#F2F2F2"/>
<path d="M109.757 71.287H70.3824V71.8495H109.757V71.287Z" fill="#F2F2F2"/>
<path d="M99.0699 71.7081H98.5074V76.9022H99.0699V71.7081Z" fill="#F2F2F2"/>
<path d="M81.9136 71.7081H81.3511V76.9022H81.9136V71.7081Z" fill="#F2F2F2"/>
<path d="M42.8199 71.0062H3.44485V71.5687H42.8199V71.0062Z" fill="#F2F2F2"/>
<path d="M32.1324 71.4274H31.5699V76.6214H32.1324V71.4274Z" fill="#F2F2F2"/>
<path d="M14.9761 71.4274H14.4136V76.6214H14.9761V71.4274Z" fill="#F2F2F2"/>
<path d="M90.0699 42.9303H50.6949V43.4928H90.0699V42.9303Z" fill="#F2F2F2"/>
<path d="M61.9449 37.8766H61.3824V43.0707H61.9449V37.8766Z" fill="#F2F2F2"/>
<path d="M79.1011 37.8766H78.5386V43.0707H79.1011V37.8766Z" fill="#F2F2F2"/>
</g>
<defs>
<clipPath id="clip0_4_25">
<rect width="252" height="210" fill="white"/>
</clipPath>
</defs>
</svg>
