<svg width="284" height="239" viewBox="0 0 284 239" fill="none" xmlns="http://www.w3.org/2000/svg">
<g clip-path="url(#clip0_5_183)">
<path d="M75.6423 144.966C74.8776 144.966 74.1052 144.954 73.347 144.93L73.3643 144.38C74.4529 144.414 75.564 144.423 76.6577 144.408L76.6653 144.959C76.3248 144.964 75.9838 144.966 75.6423 144.966ZM79.9816 144.838L79.9493 144.288C81.0396 144.224 82.1439 144.133 83.2315 144.02L83.2891 144.568C82.1932 144.683 81.0806 144.774 79.9816 144.838ZM70.0336 144.752C68.9342 144.668 67.8232 144.558 66.7312 144.424L66.7985 143.877C67.8821 144.01 68.9845 144.119 70.0756 144.203L70.0336 144.752ZM86.5805 144.146L86.4978 143.602C87.5811 143.437 88.6728 143.246 89.7415 143.034L89.8489 143.574C88.7718 143.788 87.6721 143.981 86.5805 144.146ZM63.4479 143.945C62.3617 143.761 61.2654 143.549 60.1894 143.316L60.3063 142.777C61.3741 143.009 62.462 143.219 63.5399 143.401L63.4479 143.945ZM93.0883 142.853L92.9559 142.318C94.0193 142.055 95.0886 141.764 96.1342 141.454L96.2908 141.983C95.2371 142.295 94.1598 142.588 93.0883 142.853ZM56.9635 142.537C55.8981 142.254 54.826 141.942 53.7769 141.61L53.943 141.085C54.9841 141.414 56.0481 141.723 57.1051 142.004L56.9635 142.537ZM99.4497 140.966L99.2689 140.445C100.301 140.086 101.339 139.699 102.354 139.292L102.559 139.804C101.536 140.213 100.49 140.604 99.4497 140.966H99.4497ZM50.6282 140.534C49.5935 140.154 48.5523 139.743 47.5339 139.314L47.7479 138.806C48.7585 139.232 49.7916 139.639 50.8185 140.017L50.6282 140.534ZM105.604 138.503L105.375 138.002C106.366 137.551 107.363 137.071 108.336 136.573L108.587 137.064C107.606 137.565 106.602 138.05 105.604 138.503H105.604ZM111.501 135.489L111.228 135.01C112.179 134.468 113.127 133.898 114.047 133.316L114.342 133.781C113.415 134.368 112.459 134.943 111.501 135.489H111.501ZM117.102 131.945L116.787 131.493C117.682 130.868 118.575 130.213 119.441 129.548L119.777 129.985C118.904 130.656 118.004 131.315 117.102 131.945ZM33.0919 131.169C32.2023 130.523 31.3135 129.846 30.4503 129.157L30.7942 128.726C31.6509 129.41 32.5329 130.082 33.4156 130.723L33.0919 131.169ZM122.36 127.904L122.005 127.483C122.839 126.779 123.669 126.046 124.472 125.303L124.846 125.707C124.037 126.456 123.2 127.195 122.36 127.904H122.36ZM27.9037 127.026C27.0751 126.301 26.2519 125.546 25.4572 124.783L25.8388 124.385C26.6277 125.143 27.4445 125.892 28.2667 126.612L27.9037 127.026ZM127.231 123.399L126.838 123.012C127.607 122.233 128.368 121.427 129.098 120.616L129.508 120.984C128.772 121.802 128.005 122.614 127.231 123.399ZM23.1159 122.431C22.3557 121.632 21.6049 120.806 20.8844 119.976L21.3008 119.614C22.0158 120.438 22.7607 121.258 23.5153 122.051L23.1159 122.431ZM131.673 118.468L131.247 118.118C131.942 117.273 132.626 116.401 133.281 115.525L133.722 115.855C133.063 116.737 132.373 117.617 131.673 118.468L131.673 118.468ZM18.7675 117.422C18.0848 116.559 17.4126 115.669 16.7695 114.775L17.2168 114.453C17.8551 115.34 18.5222 116.223 19.1997 117.08L18.7675 117.422ZM135.65 113.151L135.194 112.841C135.809 111.936 136.411 111.005 136.983 110.072L137.453 110.36C136.876 111.3 136.269 112.239 135.65 113.151L135.65 113.151ZM14.895 112.04C14.2944 111.119 13.7066 110.172 13.1477 109.224L13.6225 108.944C14.1772 109.885 14.7605 110.825 15.3565 111.739L14.895 112.04ZM139.127 107.49L138.644 107.223C139.173 106.266 139.688 105.282 140.173 104.3L140.667 104.545C140.178 105.534 139.66 106.525 139.127 107.49ZM142.07 101.531L141.565 101.31C142.005 100.307 142.426 99.2794 142.819 98.2566L143.334 98.4542C142.938 99.485 142.513 100.52 142.07 101.531ZM8.70618 100.342C8.28363 99.3276 7.87898 98.29 7.50352 97.2576L8.02162 97.0692C8.39411 98.0938 8.79567 99.1233 9.21486 100.13L8.70618 100.342ZM144.454 95.3214L143.931 95.1481C144.274 94.1116 144.599 93.0522 144.895 91.9991L145.426 92.1482C145.127 93.2094 144.8 94.2771 144.454 95.3214ZM6.44176 94.1135C6.11381 93.063 5.80564 91.9899 5.52587 90.9236L6.05904 90.7836C6.33666 91.8419 6.64254 92.9069 6.96793 93.9493L6.44176 94.1135ZM146.25 88.9336L145.713 88.8087C145.96 87.7464 146.186 86.6615 146.384 85.5846L146.926 85.6842C146.726 86.7697 146.499 87.8627 146.25 88.9336V88.9336ZM4.75829 87.695C4.52844 86.6184 4.32039 85.5216 4.14007 84.4346L4.68374 84.3442C4.86285 85.4231 5.06928 86.5116 5.29738 87.5798L4.75829 87.695ZM147.451 82.4079L146.905 82.3331C147.053 81.2536 147.179 80.1528 147.277 79.0612L147.826 79.1107C147.727 80.211 147.601 81.3201 147.451 82.408V82.4079ZM3.67203 81.1494C3.54204 80.0583 3.43532 78.9471 3.35471 77.8465L3.90457 77.8062C3.98437 78.8986 4.09041 80.0013 4.21947 81.0843L3.67203 81.1494ZM148.051 75.8003L147.5 75.7755C147.549 74.6833 147.574 73.5755 147.574 72.4831H148.125C148.125 73.5839 148.1 74.7 148.051 75.8003ZM3.18771 74.5321C3.16887 73.8563 3.15932 73.1667 3.15918 72.4831C3.15918 72.0589 3.16281 71.6356 3.17008 71.213L3.72128 71.2227C3.71402 71.642 3.71038 72.0622 3.71038 72.4831C3.71052 73.1616 3.72007 73.846 3.73864 74.517L3.18771 74.5321ZM3.85209 67.932L3.30196 67.8976C3.37073 66.7963 3.46573 65.6839 3.58402 64.5913L4.13199 64.6507C4.01451 65.735 3.92044 66.8389 3.85208 67.932H3.85209ZM147.218 64.5693C147.108 63.4826 146.957 62.9528 146.797 61.8708L147.342 61.7904C147.503 62.8805 147.641 63.7127 147.752 64.8076L147.218 64.5693ZM4.56113 61.3857L4.01639 61.3015C4.18527 60.211 4.38148 59.112 4.59962 58.0345L5.1398 58.1438C4.9234 59.2131 4.72867 60.3038 4.56113 61.3857ZM146.241 58.6254C146.03 57.5502 145.793 56.4678 145.535 55.4085L146.071 55.2782C146.331 56.3456 146.57 57.4363 146.782 58.5196L146.241 58.6254ZM5.86674 54.932L5.33209 54.7979C5.59975 53.7304 5.89621 52.6539 6.21326 51.5984L6.74103 51.7569C6.42655 52.8044 6.13238 53.8726 5.86674 54.932ZM144.683 52.2274C144.375 51.1778 144.04 50.1221 143.685 49.0892L144.206 48.9099C144.564 49.9508 144.902 51.0149 145.212 52.0723L144.683 52.2274ZM7.76419 48.617L7.24421 48.4342C7.61051 47.3922 8.00601 46.3453 8.41968 45.3224L8.93078 45.5291C8.52021 46.544 8.12766 47.583 7.76419 48.617ZM142.542 46.0002C142.14 44.9858 141.71 43.9678 141.262 42.9743L141.765 42.7479C142.216 43.7491 142.65 44.775 143.055 45.797L142.542 46.0002ZM10.2381 42.4994L9.73726 42.2692C10.1976 41.2667 10.6876 40.2613 11.1936 39.2811L11.6834 39.5338C11.1812 40.5066 10.695 41.5043 10.2381 42.4994ZM139.845 40.0091C139.351 39.036 138.829 38.0609 138.291 37.1113L138.771 36.8397C139.313 37.7968 139.839 38.7793 140.336 39.7599L139.845 40.0091ZM13.2634 36.6387L12.7857 36.3636C13.3356 35.4088 13.9154 34.4531 14.5093 33.5232L14.9738 33.8198C14.3845 34.7427 13.809 35.6912 13.2634 36.6387ZM136.606 34.2864C136.024 33.3592 135.414 32.4355 134.794 31.5409L135.246 31.2268C135.872 32.1283 136.486 33.0589 137.073 33.9933L136.606 34.2864ZM16.8113 31.0829L16.3607 30.7653C16.9962 29.8641 17.6605 28.9658 18.3358 28.0954L18.7713 28.4332C18.1012 29.2972 17.4417 30.1886 16.8113 31.0829ZM132.857 28.8803C132.193 28.0103 131.501 27.1454 130.8 26.3097L131.223 25.9556C131.929 26.7978 132.626 27.6691 133.295 28.5457L132.857 28.8803ZM20.8497 25.8765L20.4301 25.5191C21.1432 24.6815 21.8865 23.8478 22.6391 23.0412L23.042 23.4172C22.2951 24.2178 21.5576 25.0452 20.8497 25.8765ZM128.629 23.8348C127.889 23.0289 127.12 22.23 126.346 21.4608L126.735 21.0698C127.515 21.845 128.289 22.6498 129.035 23.4618L128.629 23.8348ZM25.3433 21.0611L24.9579 20.6671C25.7461 19.896 26.5617 19.1337 27.3819 18.4014L27.749 18.8126C26.935 19.5393 26.1256 20.2958 25.3433 21.0611ZM123.958 19.1926C123.147 18.4567 122.309 17.7308 121.468 17.0352L121.82 16.6105C122.667 17.3113 123.511 18.0427 124.329 18.7843L123.958 19.1926ZM30.2541 16.6759L29.9061 16.2485C30.7586 15.5543 31.6396 14.8695 32.5248 14.2134L32.8532 14.6561C31.9746 15.3074 31.1001 15.9869 30.2541 16.6759ZM35.5407 12.7576L35.2331 12.3003C36.1455 11.6864 37.0848 11.0853 38.025 10.5132L38.3114 10.9842C37.3784 11.5518 36.4462 12.1485 35.5407 12.7576ZM41.1596 9.33976L40.895 8.85611C41.8603 8.32792 42.85 7.81547 43.8367 7.33277L44.0789 7.82799C43.0998 8.30693 42.1176 8.81547 41.1596 9.33976ZM107.681 8.06268C106.701 7.57404 105.696 7.10198 104.695 6.65964L104.918 6.15554C105.927 6.60124 106.939 7.07695 107.927 7.56934L107.681 8.06268ZM47.0635 6.452L46.8444 5.94627C47.8531 5.50905 48.885 5.08973 49.9112 4.69988L50.1069 5.21528C49.0885 5.60205 48.0645 6.01814 47.0635 6.452ZM101.647 5.39521C100.626 4.99944 99.5816 4.62183 98.5419 4.27302L98.7174 3.75035C99.7649 4.10198 100.818 4.48241 101.846 4.88141L101.647 5.39521ZM53.2117 4.11733L53.04 3.59358C54.0875 3.25015 55.1563 2.92678 56.2164 2.63274L56.3638 3.16376C55.3117 3.45565 54.2512 3.77646 53.2117 4.11733ZM95.3962 3.29779C94.3449 2.9981 93.2727 2.719 92.2093 2.4683L92.3358 1.9319C93.4075 2.18449 94.4878 2.46574 95.5475 2.76759L95.3962 3.29779ZM59.5566 2.35647L59.4339 1.81913C60.5078 1.57381 61.6017 1.35028 62.6851 1.15489L62.7831 1.69721C61.7077 1.89126 60.6223 2.11303 59.5566 2.35647ZM88.9874 1.78683C87.9141 1.58538 86.8208 1.40613 85.7378 1.25407L85.8142 0.708247C86.9056 0.861523 88.0074 1.04212 89.0891 1.24505L88.9874 1.78683ZM66.0366 1.18705L65.9637 0.640697C67.0548 0.495092 68.1644 0.372631 69.2617 0.277088L69.3096 0.826135C68.2207 0.921138 67.1196 1.04252 66.0366 1.18705ZM82.4669 0.870813C81.3812 0.76854 80.2761 0.689682 79.182 0.636795L79.2089 0.0861432C80.3111 0.139569 81.4245 0.218967 82.5186 0.322058L82.4669 0.870813ZM72.5964 0.614724L72.5732 0.0640731C73.5863 0.0218179 74.6187 0.000285348 75.6423 1.52588e-05L75.8918 0.000420548L75.8901 0.551623L75.6423 0.551217C74.6265 0.551471 73.6016 0.572869 72.5964 0.614719V0.614724Z" fill="#3F3D56"/>
<path d="M164.325 25.9633V204.608C164.323 206.736 163.476 208.776 161.971 210.28C160.465 211.785 158.425 212.63 156.296 212.631H83.772C82.7177 212.633 81.6734 212.426 80.6989 212.024C79.7243 211.621 78.8388 211.031 78.093 210.285C77.3473 209.54 76.7558 208.655 76.3527 207.681C75.9496 206.706 75.7427 205.662 75.7438 204.608V25.9633C75.7437 24.909 75.9513 23.865 76.3547 22.8909C76.7581 21.9168 77.3495 21.0318 78.095 20.2863C78.8405 19.5408 79.7256 18.9494 80.6997 18.546C81.6737 18.1425 82.7177 17.935 83.772 17.935H94.6252V19.3268C94.625 21.0799 95.3211 22.7614 96.5605 24.0013C97.7999 25.2412 99.481 25.938 101.234 25.9385H138.121C139.532 25.9415 140.906 25.4892 142.04 24.6487C142.269 24.482 142.486 24.2997 142.69 24.103C143.336 23.4865 143.849 22.7452 144.2 21.9242C144.551 21.1032 144.731 20.2196 144.729 19.3268V17.935H156.296C157.351 17.9347 158.395 18.1422 159.369 18.5455C160.343 18.9488 161.228 19.5402 161.974 20.2857C162.72 21.0313 163.311 21.9165 163.714 22.8906C164.118 23.8648 164.325 24.9089 164.325 25.9633Z" fill="#3F3D56"/>
<path d="M153.722 82.3348H86.3469V133.597H153.722V82.3348Z" fill="#25C573"/>
<path d="M50.868 73.6976C56.8667 73.8263 61.6386 78.1734 61.6386 78.1734C61.6386 78.1734 56.6847 82.3119 50.686 82.1832C44.6873 82.0545 39.9155 77.7074 39.9155 77.7074C39.9155 77.7074 44.8694 73.5689 50.868 73.6976Z" fill="#25C573"/>
<path d="M20.7098 53.221C26.1293 55.7957 32.3438 54.0498 32.3438 54.0498C32.3438 54.0498 29.7715 48.1293 24.3519 45.5546C18.9324 42.9799 12.7179 44.7259 12.7179 44.7259C12.7179 44.7259 15.2902 50.6463 20.7098 53.221Z" fill="#25C573"/>
<path d="M21.2606 50.6624C27.2358 50.1163 32.4658 53.8998 32.4658 53.8998C32.4658 53.8998 28.0083 58.5686 22.0331 59.1147C16.0579 59.6608 10.8279 55.8773 10.8279 55.8773C10.8279 55.8773 15.2855 51.2084 21.2606 50.6624Z" fill="#3F3D56"/>
<path d="M43.1638 51.6969C42.5911 57.6695 46.3512 62.9164 46.3512 62.9164C46.3512 62.9164 51.0399 58.4797 51.6126 52.507C52.1853 46.5344 48.4252 41.2875 48.4252 41.2875C48.4252 41.2875 43.7365 45.7242 43.1638 51.6969Z" fill="#3F3D56"/>
<path d="M71.3038 88.327C68.1698 93.4436 69.248 99.808 69.248 99.808C69.248 99.808 75.4075 97.8768 78.5415 92.7603C81.6755 87.6438 80.5972 81.2794 80.5972 81.2794C80.5972 81.2794 74.4378 83.2105 71.3038 88.327Z" fill="#3F3D56"/>
<path d="M62.2117 143.957L62.6684 143.648C61.0585 141.312 60.1795 138.55 60.1431 135.713C60.1559 131.563 62.1942 127.725 64.1655 124.013C64.5314 123.324 64.8961 122.637 65.2469 121.95C66.7195 119.152 67.8931 116.205 68.7482 113.161C71.8059 101.798 68.7954 88.3915 60.6953 77.299C54.2696 68.4994 44.6907 60.8046 31.4116 53.7749L31.1538 54.262C44.3572 61.2517 53.8748 68.8935 60.2502 77.6241C68.2528 88.583 71.2306 101.814 68.2158 113.018C67.3707 116.025 66.2111 118.935 64.7563 121.7C64.4065 122.383 64.0432 123.067 63.6786 123.754C61.676 127.525 59.605 131.425 59.5919 135.711C59.6283 138.659 60.5402 141.529 62.2117 143.957Z" fill="#3F3D56"/>
<path d="M5.23654 54.4992C8.12854 54.4992 10.473 52.1547 10.473 49.2627C10.473 46.3707 8.12854 44.0263 5.23654 44.0263C2.34455 44.0263 0.00012207 46.3707 0.00012207 49.2627C0.00012207 52.1547 2.34455 54.4992 5.23654 54.4992Z" fill="#3F3D56"/>
<path d="M78.9492 134.262L46.0786 131.523V83.3126L78.9492 81.6692V134.262Z" fill="#25C573"/>
<path d="M161.119 134.262L193.99 131.523V83.3126L161.119 81.6692V134.262Z" fill="#25C573"/>
<path d="M131.46 101.575C130.482 100.731 129.277 100.193 127.995 100.03C126.713 99.8672 125.411 100.086 124.253 100.659C123.247 101.146 122.165 101.455 121.054 101.574C121.026 99.1682 121.468 96.7795 122.355 94.5422L122.5 94.167H120.568L120.513 94.3698C120.297 95.161 120.128 95.9638 120.005 96.7745C119.9 96.4231 119.765 96.0816 119.6 95.754C118.245 93.0673 115.114 91.9684 114.982 91.9231L114.715 91.8316L114.629 92.1006C114.587 92.2343 113.61 95.4052 114.965 98.0921C115.935 100.016 117.815 101.125 118.854 101.617C117.539 101.532 116.254 101.189 115.073 100.606C114.336 100.226 113.508 100.062 112.682 100.131C111.856 100.201 111.067 100.502 110.405 101C106.798 103.741 104.729 107.759 104.729 112.024C104.729 117.626 108.357 122.757 113.972 125.094C114.478 125.305 115.022 125.412 115.57 125.412C116.331 125.412 117.079 125.207 117.734 124.818C118.604 124.312 119.593 124.044 120.6 124.042C121.607 124.04 122.596 124.304 123.469 124.807C124.033 125.139 124.666 125.337 125.32 125.383C125.973 125.429 126.628 125.322 127.233 125.072C132.816 122.725 136.423 117.603 136.423 112.024C136.423 108.03 134.66 104.319 131.46 101.575ZM120.99 94.7182H121.699C120.901 96.8551 120.495 99.1182 120.499 101.399H120.372C120.201 99.1533 120.41 96.8947 120.99 94.7182ZM115.457 97.8439C114.428 95.8042 114.879 93.3731 115.079 92.5527C115.857 92.8792 118.078 93.9587 119.108 96.0022C120.137 98.0416 119.686 100.472 119.486 101.293C118.708 100.966 116.485 99.8832 115.457 97.8439ZM127.02 124.564C126.494 124.781 125.924 124.873 125.356 124.833C124.789 124.793 124.238 124.621 123.748 124.331C122.791 123.779 121.704 123.489 120.598 123.491C119.493 123.493 118.407 123.788 117.452 124.345C116.963 124.635 116.414 124.809 115.846 124.85C115.279 124.892 114.71 124.802 114.184 124.586C108.775 122.334 105.28 117.403 105.28 112.024C105.28 107.933 107.269 104.074 110.738 101.439C111.404 100.936 112.215 100.665 113.049 100.667C113.665 100.667 114.272 100.813 114.82 101.095C116.33 101.816 117.98 102.195 119.653 102.204C121.326 102.214 122.98 101.855 124.498 101.153C125.56 100.628 126.752 100.428 127.927 100.577C129.101 100.727 130.205 101.22 131.101 101.994C134.177 104.631 135.872 108.193 135.872 112.024C135.872 117.381 132.397 122.303 127.02 124.564Z" fill="white"/>
<path d="M62.4239 96.3667V95.7197H62.6811V93.704C62.682 93.5545 62.6419 93.4077 62.5651 93.2795C62.4883 93.1513 62.3777 93.0467 62.2454 92.9771C61.1079 92.3837 59.8855 92.3844 58.612 92.98C58.4715 93.0467 58.3527 93.152 58.2697 93.2836C58.1866 93.4152 58.1427 93.5677 58.1429 93.7233V95.7197H58.4001V96.3055C57.4535 96.5708 56.6201 97.1392 56.0277 97.9237C55.4353 98.7082 55.1166 99.6653 55.1205 100.648V105.01L55.6103 105.173L55.1205 105.5V106.811L55.6103 106.974L55.1205 107.301V108.611L55.6103 108.775L55.1205 109.101V119.084C55.1213 119.863 55.4311 120.609 55.9817 121.16C56.5323 121.711 57.2788 122.02 58.0575 122.021H62.3873C63.1642 122.02 63.9091 121.711 64.4584 121.162C65.0078 120.613 65.3168 119.868 65.3177 119.091V109.101L64.8279 108.775L65.3177 108.611V107.301L64.8279 106.974L65.3177 106.811V105.5L64.8279 105.173L65.3177 105.01V100.423C65.3144 99.5306 65.0343 98.6612 64.516 97.9346C63.9977 97.2081 63.2667 96.6603 62.4239 96.3667ZM58.8454 93.4793C59.9711 92.9535 61 92.949 61.9903 93.4659C62.0329 93.4893 62.0684 93.5238 62.0929 93.5657C62.1175 93.6076 62.1303 93.6554 62.1298 93.704V94.7827H58.6941V93.7234C58.6937 93.6725 58.7076 93.6226 58.7344 93.5794C58.7612 93.5362 58.7997 93.5015 58.8454 93.4793ZM64.7665 104.613L63.5844 105.007L64.7665 105.795V106.413L63.5844 106.807L64.7665 107.596V108.214L63.5844 108.608L64.7665 109.396V119.091C64.7658 119.722 64.5149 120.326 64.0688 120.772C63.6228 121.218 63.0181 121.469 62.3873 121.47H58.0575C57.4249 121.469 56.8185 121.218 56.3712 120.77C55.9239 120.323 55.6724 119.717 55.6717 119.084V109.396L56.8537 108.608L55.6717 108.214V107.596L56.8537 106.807L55.6717 106.413V105.795L56.8537 105.007L55.6717 104.613V100.648C55.6682 99.7523 55.9699 98.8817 56.5272 98.1799C57.0846 97.4782 57.8642 96.9872 58.7379 96.7877L58.9513 96.7383V95.7197H61.8727V96.7753L62.0714 96.833C62.8473 97.0615 63.5287 97.5344 64.0143 98.1812C64.4998 98.828 64.7637 99.6143 64.7665 100.423V104.613Z" fill="white"/>
<path d="M191.974 103.915L190.586 103.637L190.913 102.984L190.276 102.857L190.387 102.195L189.692 102.079V101.451L189.128 101.29L189.663 100.621H188.734L188.928 100.136L188.241 100.022L188.475 99.2052H187.731V98.443H187.456C186.588 98.443 186.103 99.4744 185.944 99.8874C181.151 100.723 167.233 110.363 165.645 111.472C164.985 111.258 164.006 111.76 163.802 111.871L163.478 112.048L163.945 112.514L163.806 112.931L164.662 113.252L164.475 113.721L165.014 114.171L164.53 114.535L165.259 114.972L165.131 115.612L165.945 115.728V116.368L166.418 116.463L166.182 117.289H166.707V117.943H167.22L167.452 118.639L167.69 118.591C168.245 118.48 168.72 117.713 168.905 117.373C173.522 116.549 187.774 106.521 189.161 105.539C190.781 105.734 191.376 105.301 191.44 105.25L191.703 105.039L191.074 104.515L191.974 103.915ZM189.126 104.979L189.018 104.965L188.93 105.028C188.772 105.14 173.142 116.213 168.686 116.85L168.543 116.87L168.479 116.999C168.308 117.348 168.077 117.663 167.797 117.931L167.617 117.392H167.258V116.738H166.913L167.112 116.04L166.496 115.917V115.25L165.786 115.149L165.876 114.699L165.516 114.483L165.902 114.194L165.135 113.554L165.383 112.934L164.497 112.602L164.576 112.366L164.405 112.194C164.819 112.022 165.319 111.894 165.534 112.023L165.688 112.115L165.834 112.012C165.991 111.903 181.515 101.044 186.186 100.407L186.361 100.384L186.413 100.215C186.493 99.9548 186.778 99.2966 187.18 99.0713V99.7564H187.744L187.542 100.464L188.162 100.568L187.92 101.172H188.516L188.18 101.592L189.14 101.867V102.546L189.752 102.648L189.645 103.293L190.097 103.383L189.771 104.036L190.561 104.194L190.154 104.466L190.739 104.953C190.208 105.061 189.661 105.07 189.126 104.979Z" fill="white"/>
<path d="M120.034 157.023C124.448 157.023 128.027 153.444 128.027 149.03C128.027 144.616 124.448 141.038 120.034 141.038C115.62 141.038 112.042 144.616 112.042 149.03C112.042 153.444 115.62 157.023 120.034 157.023Z" fill="#25C573"/>
<path d="M125.066 148.241H120.824V143.998H119.245V148.241H115.002V149.82H119.245V154.062H120.824V149.82H125.066V148.241Z" fill="white"/>
<path d="M145.242 149.306L141.108 147.377V148.479H131.462V150.133H141.108V151.235L145.242 149.306Z" fill="white"/>
<path d="M94.8267 149.306L98.9607 147.377V148.479H108.607V150.133H98.9607V151.235L94.8267 149.306Z" fill="white"/>
<path d="M221.042 212.694H19.0266V213.245H221.042V212.694Z" fill="#3F3D56"/>
<path d="M146.492 44.0262H93.5766V44.5774H146.492V44.0262Z" fill="white"/>
<path d="M146.62 194.504H93.7046V195.056H146.62V194.504Z" fill="white"/>
<path d="M231.643 140.073L230.265 145.31C230.265 145.31 225.304 156.334 230.265 156.885C235.226 157.436 235.501 142.554 235.501 142.554L231.643 140.073Z" fill="#A0616A"/>
<path d="M240.187 102.316L230.265 141.451C230.265 141.451 234.123 142.554 236.053 143.932L240.187 102.316Z" fill="#D0CDE1"/>
<path d="M271.329 132.081L274.086 174.799C274.086 174.799 280.7 191.611 280.424 207.595C280.424 207.595 277.944 213.934 279.873 215.037C281.802 216.139 282.905 216.966 281.802 217.793C280.7 218.62 279.873 220.549 280.7 221.1C281.527 221.651 281.802 222.478 281.527 222.478H273.259C273.259 222.478 274.912 218.344 272.432 217.242C269.951 216.139 271.329 213.383 271.329 213.383L252.864 159.365L238.257 208.973C238.257 208.973 240.738 210.627 238.809 211.454C236.879 212.281 236.053 210.627 236.879 212.281C237.706 213.934 236.604 214.761 236.604 215.037C236.604 215.312 228.336 214.21 228.336 214.21C228.336 214.21 232.47 210.627 230.541 209.8C228.611 208.973 227.785 208.147 228.336 207.595C228.887 207.044 231.092 201.808 231.092 201.808C231.092 201.808 232.194 181.965 232.47 181.138C232.745 180.311 232.47 176.453 232.47 174.523C232.47 172.594 232.194 164.877 233.021 162.948C233.848 161.019 234.675 137.317 239.084 134.561C243.494 131.805 271.329 132.081 271.329 132.081Z" fill="#2F2E41"/>
<path d="M236.328 213.659C236.328 213.659 241.84 224.958 237.982 226.336C234.123 227.714 229.163 226.612 228.06 228.266C226.958 229.919 214.831 231.848 214.556 227.714C214.28 223.58 227.785 215.864 227.785 215.864L229.544 213.031L236.328 213.659Z" fill="#2F2E41"/>
<path d="M280.976 221.927C280.976 221.927 286.488 233.226 282.629 234.604C278.771 235.982 273.81 234.88 272.707 236.534C271.605 238.187 259.479 240.116 259.203 235.982C258.927 231.848 272.432 224.132 272.432 224.132L274.191 221.299L280.976 221.927Z" fill="#2F2E41"/>
<path d="M255.483 80.13C260.505 80.13 264.577 76.0581 264.577 71.0351C264.577 66.0122 260.505 61.9403 255.483 61.9403C250.46 61.9403 246.388 66.0122 246.388 71.0351C246.388 76.0581 250.46 80.13 255.483 80.13Z" fill="#A0616A"/>
<path d="M261.684 75.8581L260.581 83.8505L252.313 90.1894L250.108 87.1577V76.6849L261.684 75.8581Z" fill="#A0616A"/>
<path d="M248.73 86.0554C248.73 86.0554 257.274 86.8822 261.683 83.8506L270.503 135.939C270.503 135.939 239.36 138.42 237.982 136.766V120.506L243.494 94.0478L248.73 86.0554Z" fill="#3F3D56"/>
<path d="M260.925 81.3602L263.888 83.8506C263.888 83.8506 276.015 85.7798 275.188 89.087L271.881 128.222L272.983 141.451C272.983 141.451 263.613 138.971 256.447 141.451C249.281 143.932 254.974 88.149 254.974 88.149C254.974 88.149 261.544 82.177 260.925 81.3602Z" fill="#D0CDE1"/>
<path d="M250.108 84.3768C250.108 84.3768 241.289 90.7406 240.187 94.8746C239.084 99.0086 235.501 142.554 235.501 142.554C235.501 142.554 237.155 141.727 237.982 143.105C238.809 144.483 251.486 86.5567 250.108 84.3768Z" fill="#D0CDE1"/>
<path d="M274.361 142.002L272.386 148.449C272.386 148.449 271.881 160.468 265.266 158.814C258.652 157.16 267.195 143.105 267.195 143.105L269.125 140.073L274.361 142.002Z" fill="#A0616A"/>
<path d="M246.392 70.6389C246.392 70.6389 245.407 69.162 245.786 67.5715C246.012 66.6685 246.102 65.7367 246.051 64.8072C246.051 64.8072 246.846 62.2321 247.642 60.7931C248.437 59.3542 248.058 58.7483 250.558 58.2938C253.057 57.8394 252.034 54.5828 258.623 58.1045C258.846 58.4149 259.155 58.6525 259.512 58.7873C259.869 58.9221 260.258 58.948 260.63 58.8619C261.994 58.5968 262.486 60.4902 262.486 60.4902C262.486 60.4902 263.395 59.96 263.736 60.7174C264.076 61.4748 266.507 60.2629 266.507 65.3751C266.507 70.4873 263.741 75.0538 263.741 75.0538C263.741 75.0538 263.944 66.4544 259.438 65.5835C254.931 64.7125 250.084 62.1753 248.91 65.432C248.277 67.2598 247.431 69.0073 246.392 70.6389Z" fill="#2F2E41"/>
<path d="M263.84 72.6835C264.331 72.6835 264.729 72.1529 264.729 71.4983C264.729 70.8438 264.331 70.3132 263.84 70.3132C263.349 70.3132 262.951 70.8438 262.951 71.4983C262.951 72.1529 263.349 72.6835 263.84 72.6835Z" fill="#A0616A"/>
<path d="M272.983 87.1578C272.983 87.1578 277.393 86.0554 278.771 93.4966C280.149 100.938 281.802 122.159 281.802 122.159L275.188 144.483C275.188 144.483 268.573 140.9 267.195 141.451L272.401 122.071L268.022 102.316C268.022 102.316 271.881 87.1578 272.983 87.1578Z" fill="#D0CDE1"/>
<path opacity="0.15" d="M266.572 102.693L272.359 121.985L266.572 141.553L269.879 121.985L266.572 102.693Z" fill="black"/>
</g>
<defs>
<clipPath id="clip0_5_183">
<rect width="284" height="238.458" fill="white"/>
</clipPath>
</defs>
</svg>
